<?xml version="1.0" encoding="utf-8"?>
<!DOCTYPE svg PUBLIC "-//W3C//DTD SVG 1.1//EN" "http://www.w3.org/Graphics/SVG/1.1/DTD/svg11.dtd">
<svg version="1.1" xmlns="http://www.w3.org/2000/svg" xmlns:xlink="http://www.w3.org/1999/xlink" x="0px" y="0px"
	 viewBox="0 0 368.5 425.2" enable-background="new 0 0 368.5 425.2" xml:space="preserve">
<path fill="#ffffff" d="M116.1,132.2h-1.4v-11.6c0.5,0,1,0,1.4,0c4.2,0,6.2,2,6.2,5.5C122.3,129.8,120.6,132.2,116.1,132.2z
	 M232.4,126.1c0-3.5-2-5.5-6.2-5.5c-0.4,0-0.9,0-1.4,0v11.6h1.4C230.6,132.2,232.4,129.8,232.4,126.1z M206,291.7
	c-0.4-1.6-1.5-10.3-1.5-10.3H204c0,0-1,8.8-1.5,10.3c-0.4,1.6-1.5,2.2-2.5,2.5c-1.6,0.4-10.3,1.5-10.3,1.5v0.6c0,0,8.8,1,10.3,1.5
	c1,0.3,2.1,0.9,2.5,2.5c0.4,1.6,1.5,10.3,1.5,10.3h0.6c0,0,1-8.8,1.5-10.3c0.4-1.6,1.5-2.2,2.5-2.5c1.6-0.4,10.3-1.5,10.3-1.5v-0.6
	c0,0-8.8-1-10.3-1.5C207.5,293.9,206.5,293.2,206,291.7z M276.4,98.6v137.5c0,50.8-41.3,92.2-92.1,92.2c-51.7,0-92.1-41.4-92.1-92.2
	V98.6c12-1.5,50.5-5,92.1-5C225,93.5,264,96.9,276.4,98.6z M105,246.1c10.1,6.4,24.2,9.6,35.9,9.6c17.8,0,28.6-5.3,40.4-11.2
	c16.2-8.1,29.6-16.6,50.7-16.5c12.8,0.1,24,3.4,32.1,7.7c0-3.4-0.2-6.7-0.7-9.9c-10.1-6.4-24.1-9.7-35.8-9.7
	c-17.8,0-28.6,5.5-40.3,11.3c-15.1,7.5-29.6,16.5-50.6,16.5c-12.8,0-32.3-7.8-32.3-7.8C104.4,239.5,104.6,242.9,105,246.1z
	 M161.9,171c0.5-1.6,1.4-8.9,1.7-12c-6.4,1.7-12.5,4.2-18.2,7.4c0.3,2.7,0.7,6.1,1.2,9.5c2.9-0.3,10.5-1.2,12.1-1.7
	C160,173.9,161.3,173,161.9,171z M161.9,181.9c-0.6-2-1.9-2.8-3.2-3.2c-1.6-0.4-8.9-1.4-11.9-1.7c0.6,4.2,1.1,7.9,1.5,9.3
	c1,3.6,3.4,5.1,5.8,5.8c1.4,0.4,5.3,1,9.5,1.5C163.2,190.4,162.3,183.5,161.9,181.9z M105.1,226.2c8.8,3.5,18.8,5.2,27.1,5.2
	c3.9,0,7.7-0.3,11.2-0.9c-0.3-2.9-2.4-21.1-3.3-24.4c-1-3.6-3.4-5.1-5.8-5.8c-2.5-0.7-13.4-2.1-19.8-2.8
	C109.6,206.2,106.3,215.9,105.1,226.2z M134.2,192c2.4-0.7,4.8-2.2,5.8-5.8c0.7-2.3,1.9-11.7,2.7-18.2c-10.8,6.6-20,15.8-26.6,26.6
	C122.5,193.9,131.9,192.7,134.2,192z M224.8,241.3c0.2,1.6,2.4,21.4,3.4,24.9c1,3.6,3.4,5.1,5.8,5.8c2.6,0.7,13.9,2.1,20.2,2.9
	c4.9-8.8,8.1-18.6,9.3-29c-8.8-3.5-18.9-5.4-27.2-5.4C232.1,240.4,228.3,240.7,224.8,241.3z M256.3,136.2c0,1.8-1.3,2.7-4.5,2.7
	c-2.8,0-7.2-0.9-9.7-2.2l0.9,6.5c2.6,0.9,6.1,1.4,8.9,1.4c7.2,0,13-2.3,13-9.4c0-9.4-13.5-7.6-13.5-12.1c0-1.5,1.5-2.2,4-2.2
	c2.7,0,5.6,0.6,7.6,1.4l-0.7-6.1c-2.2-0.5-4.2-0.8-7.9-0.8c-6.9,0-11.6,2.7-11.6,8.4C243,133.6,256.3,131.6,256.3,136.2z
	 M184.3,156.4c-6.8,0-13.3,0.8-19.6,2.4c0.3,2.8,1.3,10.6,1.8,12.2c0.6,2,1.9,2.8,3.2,3.2c2,0.6,13.2,1.8,13.2,1.8v0.8
	c0,0-11.2,1.3-13.2,1.9c-1.3,0.4-2.6,1.2-3.2,3.2c-0.4,1.6-1.3,8.7-1.7,11.8c6.7,0.9,13.8,1.7,13.8,1.7v1.4c0,0-20.9,2.4-24.5,3.4
	c-2.4,0.7-4.8,2.2-5.8,5.8c-1,3.3-3,21.4-3.3,24.2c14.7-2.7,27.3-10.3,36.7-14.9c13.4-6.5,25.7-11.8,42.5-11.8
	c14.6,0,27.5,4.7,36.9,10.5C251.4,180.7,220.7,156.4,184.3,156.4z M215.8,144h8.6v-6.7h3c8,0,13-4.1,13-11.3
	c0-7.9-5.4-10.7-14.2-10.7c-3.4,0-7.5,0.2-10.4,0.6V144z M200.8,144h8.6v-28h-8.6V144z M181,144h15.5l1.3-5.6h-8.2v-22.4H181V144z
	 M166.1,144h8.6v-28h-8.6V144z M133.7,144h8.6v-11h8.9v11h8.6v-28h-8.6v11.1h-8.9v-11.1h-8.6V144z M105.7,144h8.6v-6.7h3
	c8,0,13-4.1,13-11.3c0-7.9-5.4-10.7-14.2-10.7c-3.4,0-7.5,0.2-10.4,0.6V144z M184.3,316.1c14,0,27.2-3.6,38.6-9.9
	c-0.7-6.3-2.2-17.6-2.9-20.2c-1-3.6-3.4-5.1-5.8-5.8c-3.6-1-24.5-3.4-24.5-3.4v-1.4c0,0,20.9-2.4,24.5-3.4c2.4-0.7,4.8-2.2,5.8-5.8
	c1-3.4,3.2-22.6,3.4-24.6c-14.3,2.7-24.1,9.3-36.4,15.5c-13.1,6.7-25.8,11.5-42.5,11.5c-14.6,0-27.7-4.8-37.1-10.6
	C116.9,291.5,147.7,316.1,184.3,316.1z M252.7,277.4c-6.5,0.8-16.3,2-18.7,2.7c-2.4,0.7-4.8,2.2-5.8,5.8c-0.7,2.4-1.9,12.2-2.7,18.7
	C236.7,297.9,246,288.5,252.7,277.4z"/>
</svg>
